# xmcd CD database file
#
# Track frame offsets:
#	150
#	18829
#	33730
#	50595
#	73292
#	94841
#	113791
#	129640
#	152015
#	164684
#	185533
#	205240
#
# Disc length: 3017 seconds
#
# Revision: 0
# Processed by: cddbd v1.5.1PL0 Copyright (c) Steve Scherf et al.
# Submitted via: CDex 1.51
#
DISCID=ad0bc70c
DTITLE=DIXI - The New Orleans sessions
DYEAR=2005
DGENRE=Jazz
TTITLE0=Bogalusa strut
TTITLE1=Snake Rag
TTITLE2=Just a Closer Walk
TTITLE3=Original Dixieland one step
TTITLE4=Missisippi Mud
TTITLE5=Hallelujah, I love her so
TTITLE6=Tremé Second line
TTITLE7=Mis'ry and the blues
TTITLE8=Sula Salutt
TTITLE9=St. James Infirmary
TTITLE10=That's a pleanty
TTITLE11=New Orleans
EXTD=YEAR: 2005
EXTT0=
EXTT1=
EXTT2=
EXTT3=
EXTT4=
EXTT5=
EXTT6=
EXTT7=
EXTT8=
EXTT9=
EXTT10=
EXTT11=
PLAYORDER=
